HIERARCHY
ROOT hip
{
  OFFSET 0 0 0
  CHANNELS 6 Xposition Yposition Zposition Zrotation Yrotation Xrotation
  JOINT abdomen
  {
    OFFSET 0 20.6881 -0.73152
    CHANNELS 3 Zrotation Xrotation Yrotation
    JOINT chest
    {
      OFFSET 0 11.7043 -0.48768
      CHANNELS 3 Zrotation Xrotation Yrotation
      JOINT neck
      {
        OFFSET 0 22.1894 -2.19456
        CHANNELS 3 Zrotation Xrotation Yrotation
        JOINT head
        {
          OFFSET -0.24384 7.07133 1.2192
          CHANNELS 3 Zrotation Xrotation Yrotation
          JOINT leftEye
          {
            OFFSET 4.14528 8.04674 8.04672
            CHANNELS 3 Zrotation Xrotation Yrotation
            End Site
            {
              OFFSET 1 0 0
            }
          }
          JOINT rightEye
          {
            OFFSET -3.6576 8.04674 8.04672
            CHANNELS 3 Zrotation Xrotation Yrotation
            End Site
            {
              OFFSET 1 0 0
            }
          }
        }
      }
      JOINT rCollar
      {
        OFFSET -2.68224 19.2634 -4.8768
        CHANNELS 3 Zrotation Xrotation Yrotation
        JOINT rShldr
        {
          OFFSET -8.77824 -1.95073 1.46304
          CHANNELS 3 Zrotation Xrotation Yrotation
          JOINT rForeArm
          {
            OFFSET -28.1742 -1.7115 0.48768
            CHANNELS 3 Zrotation Xrotation Yrotation
            JOINT rHand
            {
              OFFSET -22.5879 0.773209 7.07136
              CHANNELS 3 Zrotation Xrotation Yrotation
              JOINT rThumb1
              {
                OFFSET -1.2192 -0.487915 3.41376
                CHANNELS 3 Zrotation Xrotation Yrotation
                JOINT rThumb2
                {
                  OFFSET -3.37035 -0.52449 3.41376
                  CHANNELS 3 Zrotation Xrotation Yrotation
                  End Site
                  {
                    OFFSET -1.78271 -1.18214 1.43049
                  }
                }
              }
              JOINT rIndex1
              {
                OFFSET -7.75947 0.938293 5.60832
                CHANNELS 3 Zrotation Xrotation Yrotation
                JOINT rIndex2
                {
                  OFFSET -2.54057 -0.884171 1.56538
                  CHANNELS 3 Zrotation Xrotation Yrotation
                  End Site
                  {
                    OFFSET -1.62519 -0.234802 1.16502
                  }
                }
              }
              JOINT rMid1
              {
                OFFSET -8.24714 1.18213 3.41376
                CHANNELS 3 Zrotation Xrotation Yrotation
                JOINT rMid2
                {
                  OFFSET -3.10165 -0.590103 1.0647
                  CHANNELS 3 Zrotation Xrotation Yrotation
                  End Site
                  {
                    OFFSET -2.48547 -0.328903 0.83742
                  }
                }
              }
              JOINT rRing1
              {
                OFFSET -8.82822 0.546677 1.51678
                CHANNELS 3 Zrotation Xrotation Yrotation
                JOINT rRing2
                {
                  OFFSET -2.60934 -0.819778 -0.0198488
                  CHANNELS 3 Zrotation Xrotation Yrotation
                  End Site
                  {
                    OFFSET -2.33842 -0.294052 0.168128
                  }
                }
              }
              JOINT rPinky1
              {
                OFFSET -8.27202 -0.0477905 -0.4584
                CHANNELS 3 Zrotation Xrotation Yrotation
                JOINT rPinky2
                {
                  OFFSET -1.82734 -0.647385 -0.700984
                  CHANNELS 3 Zrotation Xrotation Yrotation
                  End Site
                  {
                    OFFSET -1.69225 -0.51767 -0.607171
                  }
                }
              }
            }
          }
        }
      }
      JOINT lCollar
      {
        OFFSET 2.68224 19.2634 -4.8768
        CHANNELS 3 Zrotation Xrotation Yrotation
        JOINT lShldr
        {
          OFFSET 8.77824 -1.95073 1.46304
          CHANNELS 3 Zrotation Xrotation Yrotation
          JOINT lForeArm
          {
            OFFSET 28.1742 -1.7115 0.48768
            CHANNELS 3 Zrotation Xrotation Yrotation
            JOINT lHand
            {
              OFFSET 22.5879 0.773209 7.07136
              CHANNELS 3 Zrotation Xrotation Yrotation
              JOINT lThumb1
              {
                OFFSET 1.2192 -0.487915 3.41376
                CHANNELS 3 Zrotation Xrotation Yrotation
                JOINT lThumb2
                {
                  OFFSET 3.37035 -0.52449 3.41376
                  CHANNELS 3 Zrotation Xrotation Yrotation
                  End Site
                  {
                    OFFSET 1.78271 -1.18214 1.43049
                  }
                }
              }
              JOINT lIndex1
              {
                OFFSET 7.75947 0.938293 5.60832
                CHANNELS 3 Zrotation Xrotation Yrotation
                JOINT lIndex2
                {
                  OFFSET 2.54057 -0.884171 1.56538
                  CHANNELS 3 Zrotation Xrotation Yrotation
                  End Site
                  {
                    OFFSET 1.62519 -0.234802 1.16502
                  }
                }
              }
              JOINT lMid1
              {
                OFFSET 8.24714 1.18213 3.41376
                CHANNELS 3 Zrotation Xrotation Yrotation
                JOINT lMid2
                {
                  OFFSET 3.10165 -0.590103 1.0647
                  CHANNELS 3 Zrotation Xrotation Yrotation
                  End Site
                  {
                    OFFSET 2.48547 -0.328903 0.83742
                  }
                }
              }
              JOINT lRing1
              {
                OFFSET 8.82822 0.546677 1.51678
                CHANNELS 3 Zrotation Xrotation Yrotation
                JOINT lRing2
                {
                  OFFSET 2.60934 -0.819778 -0.0198488
                  CHANNELS 3 Zrotation Xrotation Yrotation
                  End Site
                  {
                    OFFSET 2.33842 -0.294052 0.168128
                  }
                }
              }
              JOINT lPinky1
              {
                OFFSET 8.27202 -0.0477905 -0.4584
                CHANNELS 3 Zrotation Xrotation Yrotation
                JOINT lPinky2
                {
                  OFFSET 1.82734 -0.647385 -0.700984
                  CHANNELS 3 Zrotation Xrotation Yrotation
                  End Site
                  {
                    OFFSET 1.69225 -0.51767 -0.607171
                  }
                }
              }
            }
          }
        }
      }
    }
  }
  JOINT rButtock
  {
    OFFSET -8.77824 4.35084 1.2192
    CHANNELS 3 Zrotation Xrotation Yrotation
    JOINT rThigh
    {
      OFFSET 0 -1.70687 -2.19456
      CHANNELS 3 Zrotation Xrotation Yrotation
      JOINT rShin
      {
        OFFSET 0 -36.8199 0.73152
        CHANNELS 3 Zrotation Xrotation Yrotation
        JOINT rFoot
        {
          OFFSET 0.73152 -45.1104 -5.12064
          CHANNELS 3 Zrotation Xrotation Yrotation
          End Site
          {
            OFFSET -1.1221 -3.69964 12.103
          }
        }
      }
    }
  }
  JOINT lButtock
  {
    OFFSET 8.77824 4.35084 1.2192
    CHANNELS 3 Zrotation Xrotation Yrotation
    JOINT lThigh
    {
      OFFSET 0 -1.70687 -2.19456
      CHANNELS 3 Zrotation Xrotation Yrotation
      JOINT lShin
      {
        OFFSET 0 -36.8199 0.73152
        CHANNELS 3 Zrotation Xrotation Yrotation
        JOINT lFoot
        {
          OFFSET -0.73152 -45.1104 -5.12064
          CHANNELS 3 Zrotation Xrotation Yrotation
          End Site
          {
            OFFSET 1.1221 -3.69964 12.103
          }
        }
      }
    }
  }
}
MOTION
Frames:	4
Frame Time:	0.00833333
9.8077 56.8855 -3.1905 -153.564196 56.069161 -160.799728 13.394461 12.015239 131.159591 -3.723399 1.014903 -111.792729 -11.565857 24.892062 -87.699562 35.351752 13.205062 86.424234 -0.558204 0.008012 -1.64465 0.224542 0.005588 2.85128 -50.300394 -85.822279 -71.737974 10.803366 12.926404 -46.256076 91.02179 -82.758704 6.134079 161.13414 -28.189167 141.946642 112.989047 -50.211 55.011006 -178.731762 -78.963406 143.892712 -18.821677 23.912235 12.037104 -68.228435 47.64441 49.210681 -36.695319 51.636939 29.675793 -6.640818 25.679372 6.611334 -0.190303 2.810181 -0.665566 12.003606 -44.410154 -3.535506 -54.731716 -49.887525 -52.895243 -146.298427 11.635631 -143.365586 155.184031 -4.587947 -161.807548 55.551654 88.106611 -2.747391 136.340896 -16.965985 -154.647108 -50.640918 -61.333579 -40.104245 -5.210116 -4.075164 0.108119 7.396401 7.127805 -3.572065 165.517906 -43.640443 -122.034972 45.393054 55.992853 -32.872222 36.205179 51.556819 -30.177476 167.707679 -17.554496 -142.419739 65.583215 71.836418 -84.604253 157.902533 25.826913 -173.149253 158.608469 65.277393 150.231827 24.565782 -38.781298 26.243667 -177.9359 75.376687 -1.691802 118.724981 77.49798 -118.14926 -0.691573 -53.964675 48.630983 154.51863 -56.279043 -118.193461 -0.583791 0.167696 -0.292317 71.973147 -48.620541 76.277395 59.828884 71.079776 -71.461259 58.749552 -2.05925 -6.876941
10.0357 56.7214 -3.2509 -153.219266 55.958001 -160.30332 13.661812 11.884826 130.273748 -3.76683 0.990079 -110.928891 3.74174 31.963343 166.802919 -10.913081 40.763973 -161.724315 -0.634981 0.010198 -1.840208 -0.001105 -2.5e-05 2.593155 -0.347433 1.03933 -0.450468 62.919795 36.676762 0.751794 169.257809 17.867502 102.565812 164.319892 -20.783005 144.328608 -94.98515 37.685409 54.090894 -145.275789 -26.818588 79.194093 -172.14738 -51.781554 121.769035 147.561686 -67.761548 84.777287 -161.282666 -6.477565 143.575336 29.160369 -60.216049 7.065387 -145.082862 -9.017459 -174.591617 -156.781531 27.930254 178.709851 9.735068 31.135951 7.16742 -86.154995 -53.881335 -84.370046 148.031685 26.011575 -153.236847 -114.148949 -29.869246 -151.161476 36.514696 19.528947 -23.081555 -11.018512 -18.993449 -6.534471 -169.525869 -27.274217 -86.122895 -134.28727 -66.950605 -102.287496 148.665994 -14.18845 -120.831989 153.79967 2.335881 -119.018019 0.552725 1.638869 -0.451469 -5.04579 -0.353871 -0.490185 -1.229854 -1.840931 -0.225324 156.273507 -30.484902 -176.858628 138.944707 -0.553052 137.484371 113.534632 -40.868488 113.604866 -0.72512 0.279698 -0.363437 -8.964302 8.442065 -132.9434 -47.971266 -30.464611 -74.267823 -82.890472 43.023329 -160.247006 -0.075602 0.058368 0.09728 75.024395 -49.747064 -101.538404 -78.446649 -79.476405 18.251265 135.937288 54.82418 -57.738165
10.2585 56.635400000000004 -3.3455 -153.141648 55.991438 -160.266906 13.185815 13.519203 86.121508 -5.055556 -2.574021 -66.980443 -11.080295 25.744034 -94.289434 35.179371 16.486389 92.448655 -0.708265 0.013912 -2.250496 -0.129251 -0.002395 2.123144 -29.47516 58.761157 31.624736 33.048734 15.33492 52.880557 158.288468 49.375103 117.897988 165.330535 -17.82144 145.086527 -13.28949 11.921684 3.174451 -133.857035 -35.491394 111.67586 -10.788658 14.791801 5.64022 -12.320988 24.442974 9.004291 -8.778374 20.663206 5.025619 -5.515856 23.57452 5.452409 -145.875768 -5.205402 -176.22985 10.07105 -0.210883 -9.472545 -26.716606 -37.352772 -25.702307 -84.973707 -54.599345 -84.944119 149.333493 22.240451 -154.633145 176.582041 60.504244 -118.560483 -172.9931 -74.086562 -108.140787 -156.740343 -35.639759 -139.31839 -99.359278 -50.916312 -44.322141 16.193262 -47.830599 29.734692 -12.711146 -21.126231 5.540811 59.172063 48.313848 -47.876858 -69.113766 -80.110477 -40.832401 -171.680203 -64.582695 -137.051743 144.055019 -0.208718 179.789606 135.790805 82.240978 -150.61566 155.370749 55.822496 150.306719 -76.567521 83.235815 38.183119 -0.054025 0.45828 0.069892 -9.442845 8.834263 -99.677864 -41.37324 -6.506844 89.532185 -37.426696 -4.736215 -20.173273 179.091928 75.604951 0.6195 -142.467794 -0.616738 89.197254 92.349793 -1.735247 140.442414 -34.838659 54.855284 136.729342
10.441799999999999 56.591 -3.4512 -153.462989 56.021501 -160.491729 13.56688 14.852851 45.057624 -3.609467 -5.902927 -26.229416 10.087264 23.26116 102.121831 -31.230123 13.512341 -98.122535 -0.834854 0.01967 -2.699349 -0.094187 -0.001312 1.595899 0.09847 -0.931964 -0.804754 37.975558 -76.296086 -29.497236 115.164122 84.194651 -64.1118 -10.537951 44.759555 3.826508 -174.274934 -11.189973 90.22289 145.510497 -47.718386 98.620454 9.456551 -19.344202 -5.538521 -127.683978 25.151559 99.686478 -13.388984 29.005782 8.647504 -162.675086 -4.033971 142.932611 -146.285364 0.425174 -178.675736 11.194724 52.787387 -2.534797 -129.01398 -23.23643 -125.730693 -23.421377 -40.995986 -26.376849 40.782375 -86.532734 62.660255 -161.954624 28.913992 115.561554 -3.716334 -49.704548 -27.234309 8.104936 38.80415 -3.300488 7.621255 7.754982 -1.984685 -177.501159 -75.700857 -96.517395 124.40139 21.926423 -105.65012 -4.350251 4.164427 7.418935 36.497823 51.556921 -30.003773 174.532718 -37.369996 -141.270885 -0.791901 -1.771152 -0.339317 -6.578744 29.715472 -3.477366 142.579531 8.403545 140.96721 -65.291378 83.255505 25.669346 -179.518816 75.071421 -0.367391 121.621468 77.196675 -120.9811 -2.149865 -43.624494 160.137778 57.317638 -34.310894 -0.868171 179.8455 75.434709 0.15963 -142.760428 -0.747741 90.495571 89.732195 -1.745945 168.280444 122.819666 -52.666526 -151.344389
